# xmcd
#
# Track frame offsets: 
#        150
#        19641
#        35494
#        79971
#        109136
#        129696
#        154307
#        188870
#        209944
#        231394
#        245653
#        259333
#        283280
#        300423
#
# Disc length: 4251 seconds
#
# Revision: 0
# Processed by: cddbd v1.5.2PL0 Copyright (c) Steve Scherf et al.
# Submitted via: ExactAudioCopy v0.99pb3
#
DISCID=d610990e
DTITLE=Philip Aaberg - Blue West
DYEAR=2005
DGENRE=Blues
TTITLE0=Keep Walkin'
TTITLE1=Sea Level Shuffle (part 1)
TTITLE2=Yellowstone Paddlewheel
TTITLE3=That Train
TTITLE4=Rocky Boy Blues
TTITLE5=Double Back At 'Ya
TTITLE6=Take Your Time
TTITLE7=Blue West
TTITLE8=The Dream of Montana Taylor
TTITLE9=Little Brother
TTITLE10=Fourteen Dollars
TTITLE11=Wumper's Old Man
TTITLE12=Sea Level Shuffle (part 2)
TTITLE13=Coyote Midnight Blues
EXTD=
EXTT0=
EXTT1=
EXTT2=
EXTT3=
EXTT4=
EXTT5=
EXTT6=
EXTT7=
EXTT8=
EXTT9=
EXTT10=
EXTT11=
EXTT12=
EXTT13=
PLAYORDER=
